<?xml version="1.0" encoding="UTF-8"?><svg id="Vrstva_2" xmlns="http://www.w3.org/2000/svg" viewBox="0 0 301.2352 100.1768" style="fill: rgba(255, 255, 245, 0.86);"><g id="Components"><g id="_17c0d846-ac6c-423e-812f-906a28caf95a_4"><polygon points="55.476 57.7612 55.476 63.0954 60.0955 65.7625 78.5736 55.0942 78.5736 49.76 73.9541 47.0929 69.3346 49.76 69.3346 55.0942 64.7151 57.7612 60.0955 55.0942 55.476 57.7612"/><polygon points="43.3761 44.3863 55.4761 37.4006 59.0932 41.0178 86.7522 25.0495 43.3761 0 0 25.0495 0 75.1343 43.3761 100.1768 86.7522 75.1343 86.7522 65.0132 43.3761 90.0557 43.3761 44.3863"/><path d="M108.4403,50.266c0-18.8535,11.7392-33.2607,30.5031-33.2607,15.6532,0,24.9017,9.3381,26.236,21.4325h-12.8067c-1.1564-6.4026-5.9586-10.5828-13.4294-10.5828-11.7392,0-17.342,9.7829-17.342,22.411,0,12.9846,6.7592,22.322,17.4309,22.322,7.5598,0,12.8956-4.5353,13.6962-11.2055h12.6288c-.3558,5.6027-2.7576,11.0276-7.026,15.0298-4.3574,4.0905-10.4939,6.7592-19.299,6.7592-17.8757,0-30.592-13.7852-30.592-32.9055Z"/><path d="M196.5692,76.7682h-.1779c-2.3128,3.4685-5.6027,6.1365-13.4294,6.1365-9.3374,0-15.9187-4.8918-15.9187-13.9624,0-10.0498,8.181-13.2515,18.3191-14.674,7.5598-1.0675,11.029-1.6901,11.029-5.158,0-3.2906-2.5797-5.4255-7.6487-5.4255-5.6917,0-8.4493,2.046-8.8051,6.4033h-10.7607c.3558-8.0038,6.3144-15.0298,19.6548-15.0298,13.6948,0,19.21,6.1365,19.21,16.8089v23.2109c0,3.4685.5323,5.5138,1.5998,6.3144v.4448h-11.6503c-.7116-.8895-1.1564-3.0238-1.4219-5.069ZM196.6581,65.7406v-6.8481c-2.1349,1.2454-5.4262,1.9563-8.4493,2.6679-6.3144,1.4233-9.4264,2.8459-9.4264,7.115s2.8451,5.7807,7.1136,5.7807c6.9371,0,10.7621-4.2691,10.7621-8.7155Z"/><path d="M225.7337,76.1455h-.1779v5.6917h-11.6503V18.25h12.095v23.4784h.2669c2.4907-3.8244,6.4033-6.7592,12.7177-6.7592,11.4724,0,19.6534,9.8719,19.6534,24.1011,0,14.763-7.8252,24.1011-19.2976,24.1011-6.4033,0-10.9386-2.7576-13.6073-7.026ZM246.367,59.0704c0-8.4486-3.3803-14.3182-10.1394-14.3182-7.6473,0-10.4939,6.1365-10.4939,14.5851,0,8.3596,4.1795,13.6955,10.9386,13.6955,6.2254,0,9.6947-5.158,9.6947-13.9624Z"/><path d="M262.1049,87.262h4.2684c4.8036,0,6.7592-2.49,6.7592-6.2254,0-2.49-.8895-5.4248-3.4678-12.3612l-12.273-32.4608h12.7177l6.7592,20.5436c1.4219,4.1795,2.9341,9.9601,2.9341,9.9601h.1779s1.2454-5.7807,2.6686-9.9601l6.4019-20.5436h12.184l-15.9187,46.779c-3.4678,10.138-6.8481,13.7845-16.0966,13.7845h-7.115v-9.5161Z"/></g></g></svg>
